<?xml version="1.0" encoding="utf-8"?>
<!-- Generator: Adobe Illustrator 18.0.0, SVG Export Plug-In . SVG Version: 6.00 Build 0)  -->
<!DOCTYPE svg PUBLIC "-//W3C//DTD SVG 1.1//EN" "http://www.w3.org/Graphics/SVG/1.1/DTD/svg11.dtd">
<svg version="1.1" id="Layer_1" xmlns="http://www.w3.org/2000/svg" xmlns:xlink="http://www.w3.org/1999/xlink" x="0px" y="0px"
	 viewBox="0 0 49.1 49.6" enable-background="new 0 0 49.1 49.6" xml:space="preserve">
<g>
	<path fill="none" stroke="#000000" stroke-width="0.7" stroke-miterlimit="10" d="M46.1,13.7c5.5,11.9,0.3,26.2-11.5,32
		c-11.8,5.8-25.8,0.9-31.3-11c-5.5-11.8-0.3-26.2,11.5-32C26.6-3,40.6,1.9,46.1,13.7z"/>
	<path fill="none" stroke="#F04A25" stroke-width="2.3" stroke-miterlimit="10" d="M1.1,28.1c1.3,10.8,10.3,20.1,23.3,20.4
		c13.4-0.3,22.4-9.9,23.5-20.3"/>
	<polygon points="14.4,33.3 16.3,33.3 20.2,20.6 24.6,33.1 29,20.7 32.9,33.3 34.7,33.3 29.1,15.1 24.5,29.1 20.1,15.2 	"/>
	<path d="M41.5,10.5c0.6,0.5,0.7,1.4,0.2,2.1c-0.5,0.6-1.4,0.7-2,0.2c-0.6-0.5-0.7-1.4-0.2-2.1C40,10,40.9,9.9,41.5,10.5z"/>
	<path fill="none" stroke="#000000" stroke-width="0.35" stroke-miterlimit="10" d="M4.6,28.3c0.3,1.5,0.8,3,1.5,4.4
		c4.9,10.6,17.1,15.1,27.3,10.1c9.6-4.7,14-16.1,10.5-26.2"/>
	<g>
		<path stroke="#000000" stroke-width="0.1" stroke-miterlimit="10" d="M5.2,23.6l0.4,0.3l0,0.1l-1.7-1l1.9-0.7l0,0.1l-0.5,0.2
			L5.2,23.6z M4.2,23.1l0.9,0.5l0.1-0.9L4.2,23.1z"/>
		<path stroke="#000000" stroke-width="0.1" stroke-miterlimit="10" d="M6,18.1c0.1,0,0.2,0,0.2,0c0.1,0,0.1,0.1,0.2,0.1
			c0,0.1,0.1,0.1,0.1,0.2c0,0.2,0,0.3,0,0.5c0,0.1-0.1,0.2-0.1,0.2c0,0.1-0.1,0.1-0.2,0.2c-0.1,0.1-0.2,0.1-0.3,0.1l0-0.1
			c0.1,0,0.2,0,0.3-0.1c0,0,0.1-0.1,0.1-0.1c0-0.1,0.1-0.1,0.1-0.2c0-0.1,0-0.3,0-0.4c0-0.1-0.1-0.2-0.2-0.2c-0.1,0-0.1,0-0.2,0
			c-0.1,0-0.1,0.1-0.2,0.1c0,0-0.1,0.1-0.2,0.3c0,0,0,0.1-0.1,0.1c0,0.1-0.1,0.1-0.1,0.2c-0.1,0.1-0.1,0.1-0.2,0.2
			c-0.1,0-0.2,0-0.2,0c-0.1,0-0.1-0.1-0.2-0.1c0-0.1-0.1-0.1-0.1-0.2c0-0.1,0-0.2,0-0.2c0-0.1,0-0.2,0-0.2C4.8,18.2,4.9,18,5,17.9
			c0.1-0.1,0.2-0.1,0.3-0.1l0,0.1c0,0-0.1,0-0.1,0c0,0-0.1,0-0.1,0.1c0,0-0.1,0.1-0.1,0.1c0,0.1-0.1,0.1-0.1,0.2c0,0.1,0,0.1,0,0.2
			c0,0.1,0,0.1,0,0.2c0,0.1,0,0.1,0.1,0.1C5,19,5,19,5.1,19c0.1,0,0.1,0,0.2,0c0.1,0,0.1-0.1,0.2-0.1c0,0,0.1-0.1,0.1-0.1
			c0,0,0-0.1,0.1-0.2c0,0,0,0,0-0.1c0,0,0-0.1,0.1-0.1c0,0,0.1-0.1,0.1-0.1C5.9,18.2,5.9,18.2,6,18.1z"/>
		<path stroke="#000000" stroke-width="0.1" stroke-miterlimit="10" d="M7.4,15.6l-1.1-1l0.1-0.1l1.4,1.3l-1.4-0.1l1,1.1l-1.9-0.3
			l0.1-0.1L7,16.5l-1-1L7.4,15.6z"/>
		<path stroke="#000000" stroke-width="0.1" stroke-miterlimit="10" d="M8.6,14.2l-1.5-1l0.6-1l0.1,0.1l-0.6,0.9l0.6,0.4l0.4-0.7
			l0.1,0.1L8,13.6L8.5,14l0.6-0.9l0.1,0.1L8.6,14.2z"/>
		<path stroke="#000000" stroke-width="0.1" stroke-miterlimit="10" d="M10,12.2L8.6,11l0.8-0.9l0.1,0.1L8.8,11l0.5,0.5l0.5-0.6
			l0.1,0.1l-0.5,0.6L9.9,12l0.7-0.8l0.1,0.1L10,12.2z"/>
		<path stroke="#000000" stroke-width="0.1" stroke-miterlimit="10" d="M11.5,8L11.5,8l-0.4,0.6l1.1,1.3l-0.1,0.1L11,8.6l-0.5,0.5
			L10.4,9L11.5,8z"/>
		<path stroke="#000000" stroke-width="0.1" stroke-miterlimit="10" d="M15,7.7l-0.9-1.6l1-0.6l0.1,0.1l-0.9,0.5l0.3,0.6l0.7-0.4
			l0.1,0.1l-0.7,0.4l0.3,0.6L16,7L16,7.1L15,7.7z"/>
		<path stroke="#000000" stroke-width="0.1" stroke-miterlimit="10" d="M17.7,4.3l-0.3,1.1L18.4,6l-0.1,0.1l-0.8-0.5l-0.2,1
			l-0.1,0.1l0.3-1.1l-0.9-0.6l0.1-0.1l0.8,0.5l0.2-1L17.7,4.3z"/>
		<path stroke="#000000" stroke-width="0.1" stroke-miterlimit="10" d="M19.5,5.6L19,3.8l0.6-0.2c0.1,0,0.2,0,0.3,0
			c0.1,0,0.2,0.1,0.3,0.1c0.1,0.1,0.1,0.1,0.1,0.2c0,0.1,0,0.2,0,0.3c0,0.1-0.1,0.2-0.2,0.2c-0.1,0.1-0.2,0.1-0.3,0.1l-0.5,0.1
			l0.2,0.8L19.5,5.6z M19.4,4.7l0.5-0.1c0.1,0,0.1-0.1,0.2-0.1c0.1-0.1,0.1-0.1,0.1-0.2c0-0.1,0-0.1,0-0.2c0-0.1-0.1-0.1-0.1-0.2
			S20,3.8,19.9,3.8c-0.1,0-0.2,0-0.2,0l-0.5,0.1L19.4,4.7z"/>
		<path stroke="#000000" stroke-width="0.1" stroke-miterlimit="10" d="M21.8,5.1l-0.2-1.8l1.1-0.2l0,0.1l-1,0.1l0.1,0.7L22.6,4
			l0,0.1l-0.8,0.1l0.1,0.7l1-0.1l0,0.1L21.8,5.1z"/>
		<path stroke="#000000" stroke-width="0.1" stroke-miterlimit="10" d="M25.3,4.8l-0.7-0.9l0.2,0c0.1,0,0.2,0,0.3-0.1
			c0.1,0,0.1-0.1,0.2-0.1c0-0.1,0.1-0.1,0.1-0.2c0-0.1,0-0.1-0.1-0.2c0-0.1-0.1-0.1-0.2-0.1c-0.1,0-0.2-0.1-0.2-0.1l-0.5,0l0,1.7
			l-0.1,0l0-1.8l0.6,0C24.9,3,25,3,25,3c0.1,0,0.1,0.1,0.2,0.1c0.1,0,0.1,0.1,0.1,0.2c0,0.1,0,0.1,0,0.2c0,0.1,0,0.2-0.1,0.3
			c-0.1,0.1-0.1,0.1-0.2,0.2C25.1,4,25,4,24.9,4c-0.1,0-0.1,0-0.2,0l0.7,0.8L25.3,4.8z"/>
		<path stroke="#000000" stroke-width="0.1" stroke-miterlimit="10" d="M26.7,4.9L26.9,3l0.1,0l-0.2,1.8L26.7,4.9z"/>
		<path stroke="#000000" stroke-width="0.1" stroke-miterlimit="10" d="M28.2,5.1l0.3-1.8l1.1,0.2l0,0.1l-1-0.2l-0.1,0.7l0.8,0.2
			l0,0.1l-0.8-0.2L28.3,5l1,0.2l0,0.1L28.2,5.1z"/>
		<path stroke="#000000" stroke-width="0.1" stroke-miterlimit="10" d="M31.1,4.2l-0.5,1.4l-0.1,0l0.6-1.8l0.7,1.8l0.5-1.4l0.1,0
			l-0.6,1.8L31.1,4.2z"/>
		<path stroke="#000000" stroke-width="0.1" stroke-miterlimit="10" d="M33.7,6.9c-0.1-0.1-0.3-0.2-0.4-0.3
			c-0.1-0.1-0.1-0.3-0.1-0.5c0-0.2,0-0.3,0.1-0.5c0.1-0.2,0.2-0.3,0.3-0.4c0.1-0.1,0.3-0.1,0.4-0.2c0.2,0,0.3,0,0.5,0.1
			c0.1,0.1,0.2,0.1,0.3,0.2c0.1,0.1,0.1,0.2,0.2,0.3l-0.1,0c0-0.1-0.1-0.2-0.1-0.3c-0.1-0.1-0.2-0.2-0.3-0.2
			c-0.1-0.1-0.3-0.1-0.4-0.1c-0.1,0-0.3,0.1-0.4,0.1c-0.1,0.1-0.2,0.2-0.3,0.3c-0.1,0.1-0.1,0.3-0.1,0.4c0,0.1,0.1,0.3,0.1,0.4
			c0.1,0.1,0.2,0.2,0.3,0.3c0.1,0.1,0.2,0.1,0.3,0.1c0.1,0,0.2,0,0.3-0.1l0.1,0.1C34.3,7,34.2,7,34.1,7C33.9,7,33.8,7,33.7,6.9z"/>
		<path stroke="#000000" stroke-width="0.1" stroke-miterlimit="10" d="M35.3,7.9l1-1.5l1,0.7l-0.1,0.1l-0.9-0.6l-0.4,0.6l0.7,0.5
			l-0.1,0.1l-0.7-0.5l-0.4,0.6l0.9,0.6l-0.1,0.1L35.3,7.9z"/>
	</g>
</g>
</svg>
