<?xml version="1.0" encoding="utf-8"?>
<!-- Generator: Adobe Illustrator 18.0.0, SVG Export Plug-In . SVG Version: 6.00 Build 0)  -->
<!DOCTYPE svg PUBLIC "-//W3C//DTD SVG 1.1//EN" "http://www.w3.org/Graphics/SVG/1.1/DTD/svg11.dtd">
<svg version="1.1" id="Layer_1" xmlns="http://www.w3.org/2000/svg" xmlns:xlink="http://www.w3.org/1999/xlink" x="0px" y="0px"
	 viewBox="0 0 195.4 195" enable-background="new 0 0 195.4 195" xml:space="preserve">
<g>
	<circle fill="none" stroke="#110F35" stroke-width="2" stroke-miterlimit="10" cx="97.8" cy="96.4" r="95.4"/>
	<path fill="none" stroke="#F04A25" stroke-width="6" stroke-miterlimit="10" d="M3,106.8C8.3,151.9,44.7,191,97,192
		c54.2-1.5,90.6-41.6,95.4-85.2"/>
	<polygon points="55.8,132.2 63.7,132.2 79.8,81 98.1,130.8 116.7,81.4 132.8,132.2 140,132.2 116.8,59 97.9,114.8 79.5,59.5 	"/>
	<path d="M168.3,42.6c2.5,2.1,2.9,5.8,0.8,8.3c-2.1,2.5-5.8,2.9-8.3,0.8c-2.5-2.1-2.9-5.8-0.8-8.3C162.1,40.9,165.8,40.5,168.3,42.6
		z"/>
	<path fill="none" stroke="#000000" stroke-width="1.2" stroke-miterlimit="10" d="M14.9,114c1.4,6,3.4,11.9,6.1,17.7
		c20.1,42.4,70.9,60.5,113.3,40.3c39.7-18.9,58.1-64.6,43.7-105.2"/>
	<g>
		<path stroke="#000000" stroke-width="0.25" stroke-miterlimit="10" d="M17.8,95.5l1.8,1l0,0.6L12.4,93l7.7-2.6l0,0.6l-1.9,0.7
			L17.8,95.5z M13.7,93.1l3.7,2.1l0.3-3.4L13.7,93.1z"/>
		<path stroke="#000000" stroke-width="0.25" stroke-miterlimit="10" d="M21.2,73.4c0.3-0.1,0.6-0.1,1,0c0.3,0.1,0.5,0.2,0.7,0.4
			c0.2,0.2,0.4,0.5,0.5,0.8c0.2,0.6,0.2,1.3,0,1.9c-0.1,0.3-0.3,0.6-0.4,0.9c-0.2,0.3-0.4,0.5-0.7,0.7c-0.4,0.3-0.9,0.4-1.3,0.4
			l-0.1-0.5c0.4,0.1,0.8,0,1.2-0.3c0.2-0.1,0.4-0.3,0.5-0.6c0.2-0.2,0.3-0.5,0.4-0.8c0.2-0.6,0.2-1.1,0-1.6
			c-0.2-0.5-0.4-0.8-0.8-0.9c-0.2-0.1-0.5-0.1-0.7,0c-0.2,0.1-0.5,0.2-0.7,0.4c-0.2,0.2-0.4,0.6-0.7,1.2c0,0-0.1,0.2-0.3,0.5
			c-0.1,0.3-0.3,0.5-0.5,0.7c-0.3,0.3-0.6,0.5-0.9,0.6c-0.3,0.1-0.7,0.1-1,0c-0.3-0.1-0.5-0.2-0.7-0.4c-0.2-0.2-0.3-0.5-0.4-0.8
			C16,75.9,16,75.6,16,75.2c0-0.3,0.1-0.7,0.2-1c0.2-0.7,0.6-1.2,1.1-1.6c0.4-0.3,0.9-0.5,1.3-0.4l0.1,0.5c-0.2,0-0.4-0.1-0.6,0
			c-0.2,0-0.4,0.1-0.6,0.3c-0.2,0.2-0.4,0.3-0.5,0.6c-0.2,0.2-0.3,0.5-0.4,0.8c-0.1,0.3-0.1,0.6-0.1,0.8c0,0.3,0,0.5,0.1,0.8
			c0.1,0.2,0.2,0.4,0.3,0.6c0.1,0.2,0.3,0.3,0.5,0.3c0.2,0.1,0.5,0.1,0.7,0c0.3-0.1,0.5-0.3,0.7-0.5c0.1-0.1,0.2-0.3,0.3-0.5
			c0.1-0.2,0.2-0.4,0.3-0.7c0,0,0.1-0.2,0.2-0.4c0.1-0.2,0.2-0.4,0.3-0.5c0.1-0.2,0.2-0.3,0.3-0.4C20.6,73.6,20.9,73.5,21.2,73.4z"
			/>
		<path stroke="#000000" stroke-width="0.25" stroke-miterlimit="10" d="M27,63.2L22.5,59l0.2-0.5l5.8,5.3l-5.9-0.5l4,4.3l-7.8-1.1
			l0.2-0.5l6.2,0.9l-3.9-4.2L27,63.2z"/>
		<path stroke="#000000" stroke-width="0.25" stroke-miterlimit="10" d="M31.9,57.6l-6.1-4.1l2.7-4l0.4,0.3l-2.4,3.5l2.4,1.6
			l1.8-2.8l0.4,0.3l-1.8,2.8l2.4,1.6l2.4-3.5l0.4,0.3L31.9,57.6z"/>
		<path stroke="#000000" stroke-width="0.25" stroke-miterlimit="10" d="M37.6,49.6L32,44.8l3.1-3.6l0.4,0.3l-2.8,3.2l2.2,1.9
			l2.2-2.5l0.4,0.3L35.4,47l2.2,1.9l2.8-3.2l0.4,0.3L37.6,49.6z"/>
		<path stroke="#000000" stroke-width="0.25" stroke-miterlimit="10" d="M44,32.7l0.3,0.4L42.2,35l4.6,5.1l-0.4,0.3l-4.6-5.1
			l-2.2,1.9l-0.3-0.4L44,32.7z"/>
		<path stroke="#000000" stroke-width="0.25" stroke-miterlimit="10" d="M58.6,31.4L55,25l4.2-2.3l0.3,0.5l-3.7,2.1l1.4,2.5l2.9-1.6
			l0.3,0.5l-2.9,1.6l1.4,2.5l3.7-2.1l0.3,0.5L58.6,31.4z"/>
		<path stroke="#000000" stroke-width="0.25" stroke-miterlimit="10" d="M69.8,17.9l-1.1,4.4l3.8,2.4L71.9,25l-3.4-2.2l-0.9,3.9
			L67.1,27l1.1-4.4l-3.8-2.4l0.6-0.2l3.4,2.2l0.9-3.9L69.8,17.9z"/>
		<path stroke="#000000" stroke-width="0.25" stroke-miterlimit="10" d="M77.1,23.2l-1.9-7.1l2.5-0.7c0.4-0.1,0.8-0.1,1.2,0
			c0.4,0.1,0.8,0.3,1,0.5c0.3,0.3,0.5,0.6,0.6,0.9c0.1,0.4,0.1,0.7,0,1.1c-0.1,0.4-0.3,0.7-0.6,1c-0.3,0.3-0.7,0.5-1.1,0.6l-2,0.5
			l0.8,3.1L77.1,23.2z M76.7,19.5l2-0.5c0.3-0.1,0.6-0.2,0.9-0.4c0.2-0.2,0.4-0.5,0.5-0.7c0.1-0.3,0.1-0.5,0-0.8
			c-0.1-0.3-0.2-0.5-0.4-0.7c-0.2-0.2-0.5-0.3-0.8-0.4c-0.3-0.1-0.6,0-1,0l-2,0.5L76.7,19.5z"/>
		<path stroke="#000000" stroke-width="0.25" stroke-miterlimit="10" d="M86.8,21l-1-7.3l4.7-0.6l0.1,0.5l-4.2,0.6l0.4,2.9l3.3-0.4
			l0.1,0.5l-3.3,0.5l0.4,2.9l4.2-0.6l0.1,0.5L86.8,21z"/>
		<path stroke="#000000" stroke-width="0.25" stroke-miterlimit="10" d="M101,19.9l-3.1-3.7l0.9,0c0.6,0,1-0.1,1.4-0.2
			c0.3-0.1,0.5-0.3,0.7-0.6c0.2-0.2,0.3-0.5,0.3-0.8c0-0.3-0.1-0.5-0.2-0.8c-0.2-0.2-0.4-0.4-0.7-0.6c-0.3-0.1-0.6-0.2-1-0.2l-2.1,0
			l0.1,6.9l-0.5,0l-0.1-7.4l2.6,0c0.3,0,0.7,0,1,0.2c0.3,0.1,0.6,0.3,0.8,0.5c0.2,0.2,0.4,0.4,0.5,0.7c0.1,0.2,0.2,0.5,0.2,0.8
			c0,0.4-0.1,0.8-0.4,1.1c-0.2,0.3-0.5,0.6-0.9,0.7c-0.2,0.1-0.5,0.2-0.7,0.2c-0.2,0-0.5,0-0.7,0l2.7,3.2L101,19.9z"/>
		<path stroke="#000000" stroke-width="0.25" stroke-miterlimit="10" d="M107,20.3l0.7-7.3l0.5,0l-0.7,7.3L107,20.3z"/>
		<path stroke="#000000" stroke-width="0.25" stroke-miterlimit="10" d="M113,21l1.4-7.2l4.7,0.9l-0.1,0.5l-4.2-0.8l-0.6,2.8
			l3.3,0.6l-0.1,0.5l-3.3-0.6l-0.6,2.8l4.2,0.8l-0.1,0.5L113,21z"/>
		<path stroke="#000000" stroke-width="0.25" stroke-miterlimit="10" d="M125,17.7l-1.9,5.7l-0.5-0.2l2.4-7.1l2.9,7.4l1.9-5.7
			l0.5,0.2l-2.4,7.1L125,17.7z"/>
		<path stroke="#000000" stroke-width="0.25" stroke-miterlimit="10" d="M135.8,28.5c-0.6-0.3-1.1-0.7-1.5-1.3
			c-0.4-0.6-0.6-1.2-0.6-1.8c0-0.7,0.1-1.3,0.4-1.9c0.3-0.6,0.7-1.1,1.3-1.5c0.6-0.4,1.2-0.6,1.8-0.6c0.7-0.1,1.3,0.1,1.9,0.4
			c0.5,0.2,0.9,0.5,1.2,1c0.3,0.4,0.6,0.9,0.7,1.4l-0.5,0.1c-0.1-0.4-0.3-0.8-0.6-1.2c-0.3-0.4-0.6-0.6-1-0.8
			c-0.5-0.3-1.1-0.4-1.6-0.3c-0.6,0-1.1,0.2-1.6,0.5c-0.5,0.3-0.9,0.7-1.1,1.3c-0.3,0.5-0.4,1.1-0.3,1.7c0,0.6,0.2,1.1,0.5,1.6
			c0.3,0.5,0.7,0.8,1.3,1.1c0.4,0.2,0.9,0.3,1.4,0.3c0.5,0,0.9-0.1,1.4-0.3l0.2,0.5c-0.5,0.2-1.1,0.4-1.6,0.4
			C136.9,28.9,136.3,28.8,135.8,28.5z"/>
		<path stroke="#000000" stroke-width="0.25" stroke-miterlimit="10" d="M142.6,32.2l4.1-6.1l4,2.6l-0.3,0.4l-3.5-2.4l-1.6,2.4
			L148,31l-0.3,0.4l-2.8-1.8l-1.6,2.4l3.5,2.4l-0.3,0.4L142.6,32.2z"/>
	</g>
</g>
</svg>
