<?xml version="1.0" encoding="utf-8"?>
<!-- Generator: Adobe Illustrator 18.0.0, SVG Export Plug-In . SVG Version: 6.00 Build 0)  -->
<!DOCTYPE svg PUBLIC "-//W3C//DTD SVG 1.1//EN" "http://www.w3.org/Graphics/SVG/1.1/DTD/svg11.dtd">
<svg version="1.1" id="Layer_1" xmlns="http://www.w3.org/2000/svg" xmlns:xlink="http://www.w3.org/1999/xlink" x="0px" y="0px"
	 viewBox="0 0 75.4 75.4" enable-background="new 0 0 75.4 75.4" xml:space="preserve">
<g>
	<circle fill="none" stroke="#000000" stroke-miterlimit="10" cx="37.9" cy="37.2" r="36.7"/>
	<path fill="none" stroke="#F04A25" stroke-width="3" stroke-miterlimit="10" d="M1.5,43.1c1.9,16.2,15.7,30.3,35.7,30.9
		C58,73.6,72,59.3,73.9,43.7"/>
	<polygon points="21.7,51 24.8,51 31,31.3 38,50.4 45.2,31.4 51.4,51 54.1,51 45.2,22.8 37.9,44.3 30.9,23 	"/>
	<circle cx="63.6" cy="18.3" r="2.3"/>
	<path fill="none" stroke="#000000" stroke-width="0.75" stroke-miterlimit="10" d="M6,44c0.5,2.3,1.3,4.6,2.4,6.8
		c7.8,16.3,27.3,23.3,43.6,15.5c15.3-7.3,22.4-24.9,16.8-40.5"/>
	<g>
		<path stroke="#000000" stroke-width="0.25" stroke-miterlimit="10" d="M7.1,36.9l0.7,0.4l0,0.2l-2.8-1.6l3-1l0,0.2l-0.7,0.3
			L7.1,36.9z M5.5,35.9l1.4,0.8l0.1-1.3L5.5,35.9z"/>
		<path stroke="#000000" stroke-width="0.25" stroke-miterlimit="10" d="M8.4,28.3c0.1,0,0.2,0,0.4,0c0.1,0,0.2,0.1,0.3,0.2
			c0.1,0.1,0.1,0.2,0.2,0.3c0.1,0.2,0.1,0.5,0,0.7c0,0.1-0.1,0.2-0.2,0.3C9,30,8.9,30.1,8.8,30.2c-0.2,0.1-0.3,0.2-0.5,0.2l0-0.2
			c0.2,0,0.3,0,0.4-0.1c0.1-0.1,0.1-0.1,0.2-0.2C9,29.7,9,29.6,9.1,29.5c0.1-0.2,0.1-0.4,0-0.6c-0.1-0.2-0.2-0.3-0.3-0.3
			c-0.1,0-0.2,0-0.3,0c-0.1,0-0.2,0.1-0.3,0.2c-0.1,0.1-0.2,0.2-0.3,0.5c0,0,0,0.1-0.1,0.2c-0.1,0.1-0.1,0.2-0.2,0.3
			c-0.1,0.1-0.2,0.2-0.4,0.2c-0.1,0-0.3,0-0.4,0c-0.1,0-0.2-0.1-0.3-0.2c-0.1-0.1-0.1-0.2-0.2-0.3c0-0.1-0.1-0.2-0.1-0.4
			c0-0.1,0-0.3,0.1-0.4c0.1-0.3,0.2-0.5,0.4-0.6c0.2-0.1,0.3-0.2,0.5-0.2l0,0.2c-0.1,0-0.1,0-0.2,0c-0.1,0-0.2,0.1-0.2,0.1
			c-0.1,0.1-0.1,0.1-0.2,0.2c-0.1,0.1-0.1,0.2-0.1,0.3c0,0.1-0.1,0.2-0.1,0.3c0,0.1,0,0.2,0,0.3c0,0.1,0.1,0.2,0.1,0.2
			c0.1,0.1,0.1,0.1,0.2,0.1c0.1,0,0.2,0,0.3,0c0.1,0,0.2-0.1,0.3-0.2c0,0,0.1-0.1,0.1-0.2c0-0.1,0.1-0.2,0.1-0.3c0,0,0-0.1,0.1-0.1
			c0-0.1,0.1-0.1,0.1-0.2c0-0.1,0.1-0.1,0.1-0.2C8.2,28.5,8.3,28.4,8.4,28.3z"/>
		<path stroke="#000000" stroke-width="0.25" stroke-miterlimit="10" d="M10.7,24.4l-1.7-1.6L9,22.6l2.2,2.1L9,24.5l1.6,1.6l-3-0.4
			l0.1-0.2l2.4,0.3l-1.5-1.6L10.7,24.4z"/>
		<path stroke="#000000" stroke-width="0.25" stroke-miterlimit="10" d="M12.5,22.3l-2.4-1.6l1-1.5l0.2,0.1l-0.9,1.4l0.9,0.6
			l0.7-1.1l0.2,0.1l-0.7,1.1l0.9,0.6l0.9-1.4l0.2,0.1L12.5,22.3z"/>
		<path stroke="#000000" stroke-width="0.25" stroke-miterlimit="10" d="M14.7,19.2l-2.1-1.9l1.2-1.4l0.2,0.1l-1.1,1.2l0.8,0.7
			l0.8-1l0.2,0.1l-0.8,1l0.8,0.7l1.1-1.2l0.2,0.1L14.7,19.2z"/>
		<path stroke="#000000" stroke-width="0.25" stroke-miterlimit="10" d="M17.2,12.7l0.1,0.1l-0.8,0.7l1.8,2l-0.1,0.1l-1.8-2
			l-0.8,0.7l-0.1-0.1L17.2,12.7z"/>
		<path stroke="#000000" stroke-width="0.25" stroke-miterlimit="10" d="M22.8,12.2l-1.4-2.5L23,8.8L23.1,9l-1.4,0.8l0.5,1l1.1-0.6
			l0.1,0.2L22.3,11l0.5,1l1.4-0.8l0.1,0.2L22.8,12.2z"/>
		<path stroke="#000000" stroke-width="0.25" stroke-miterlimit="10" d="M27.1,7l-0.4,1.7l1.5,0.9L28,9.7l-1.3-0.8l-0.4,1.5
			l-0.2,0.1l0.4-1.7L25,7.9l0.2-0.1l1.3,0.8l0.4-1.5L27.1,7z"/>
		<path stroke="#000000" stroke-width="0.25" stroke-miterlimit="10" d="M30,9.1l-0.7-2.7l1-0.3c0.2,0,0.3,0,0.5,0
			c0.2,0,0.3,0.1,0.4,0.2c0.1,0.1,0.2,0.2,0.2,0.4c0,0.1,0,0.3,0,0.4c0,0.1-0.1,0.3-0.2,0.4c-0.1,0.1-0.3,0.2-0.4,0.2l-0.8,0.2
			L30.1,9L30,9.1z M29.8,7.6l0.8-0.2c0.1,0,0.2-0.1,0.3-0.2C31,7.2,31.1,7.1,31.1,7c0-0.1,0-0.2,0-0.3c0-0.1-0.1-0.2-0.2-0.3
			s-0.2-0.1-0.3-0.1c-0.1,0-0.2,0-0.4,0l-0.8,0.2L29.8,7.6z"/>
		<path stroke="#000000" stroke-width="0.25" stroke-miterlimit="10" d="M33.7,8.2l-0.4-2.8l1.8-0.2l0,0.2l-1.6,0.2l0.2,1.1l1.3-0.2
			l0,0.2l-1.3,0.2L33.8,8l1.6-0.2l0,0.2L33.7,8.2z"/>
		<path stroke="#000000" stroke-width="0.25" stroke-miterlimit="10" d="M39.1,7.8l-1.2-1.4l0.3,0c0.2,0,0.4,0,0.5-0.1
			c0.1,0,0.2-0.1,0.3-0.2c0.1-0.1,0.1-0.2,0.1-0.3c0-0.1,0-0.2-0.1-0.3c-0.1-0.1-0.2-0.2-0.3-0.2c-0.1-0.1-0.2-0.1-0.4-0.1l-0.8,0
			l0,2.6l-0.2,0l0-2.8l1,0c0.1,0,0.3,0,0.4,0.1c0.1,0,0.2,0.1,0.3,0.2c0.1,0.1,0.2,0.2,0.2,0.3c0,0.1,0.1,0.2,0.1,0.3
			c0,0.2,0,0.3-0.1,0.4c-0.1,0.1-0.2,0.2-0.3,0.3c-0.1,0-0.2,0.1-0.3,0.1c-0.1,0-0.2,0-0.3,0l1,1.2L39.1,7.8z"/>
		<path stroke="#000000" stroke-width="0.25" stroke-miterlimit="10" d="M41.4,7.9l0.3-2.8l0.2,0l-0.3,2.8L41.4,7.9z"/>
		<path stroke="#000000" stroke-width="0.25" stroke-miterlimit="10" d="M43.8,8.2l0.5-2.8l1.8,0.4l0,0.2l-1.6-0.3l-0.2,1.1L45.5,7
			l0,0.2l-1.3-0.2L44,8l1.6,0.3l0,0.2L43.8,8.2z"/>
		<path stroke="#000000" stroke-width="0.25" stroke-miterlimit="10" d="M48.4,6.9l-0.7,2.2L47.5,9l0.9-2.7l1.1,2.8L50.2,7L50.4,7
			l-0.9,2.7L48.4,6.9z"/>
		<path stroke="#000000" stroke-width="0.25" stroke-miterlimit="10" d="M52.5,11.1c-0.2-0.1-0.4-0.3-0.6-0.5
			c-0.1-0.2-0.2-0.5-0.2-0.7s0-0.5,0.1-0.7c0.1-0.2,0.3-0.4,0.5-0.6c0.2-0.1,0.4-0.2,0.7-0.2c0.3,0,0.5,0,0.7,0.1
			c0.2,0.1,0.3,0.2,0.5,0.4c0.1,0.2,0.2,0.3,0.3,0.5l-0.2,0.1c0-0.2-0.1-0.3-0.2-0.5c-0.1-0.1-0.2-0.2-0.4-0.3
			c-0.2-0.1-0.4-0.1-0.6-0.1c-0.2,0-0.4,0.1-0.6,0.2c-0.2,0.1-0.3,0.3-0.4,0.5c-0.1,0.2-0.1,0.4-0.1,0.6c0,0.2,0.1,0.4,0.2,0.6
			c0.1,0.2,0.3,0.3,0.5,0.4C52.8,11,53,11,53.2,11c0.2,0,0.4,0,0.5-0.1l0.1,0.2c-0.2,0.1-0.4,0.1-0.6,0.1
			C52.9,11.2,52.7,11.2,52.5,11.1z"/>
		<path stroke="#000000" stroke-width="0.25" stroke-miterlimit="10" d="M55.1,12.5l1.6-2.4l1.5,1l-0.1,0.2l-1.4-0.9l-0.6,0.9
			l1.1,0.7l-0.1,0.2L56,11.5l-0.6,0.9l1.4,0.9l-0.1,0.2L55.1,12.5z"/>
	</g>
</g>
</svg>
