<?xml version="1.0" encoding="utf-8"?>
<!-- Generator: Adobe Illustrator 18.0.0, SVG Export Plug-In . SVG Version: 6.00 Build 0)  -->
<!DOCTYPE svg PUBLIC "-//W3C//DTD SVG 1.1//EN" "http://www.w3.org/Graphics/SVG/1.1/DTD/svg11.dtd">
<svg version="1.1" id="Layer_1" xmlns="http://www.w3.org/2000/svg" xmlns:xlink="http://www.w3.org/1999/xlink" x="0px" y="0px"
	 viewBox="0 0 345 290.7" enable-background="new 0 0 345 290.7" xml:space="preserve">
<rect x="170" opacity="0.2" fill="url(#SVGID_2_)" width="175" height="291"/>
<circle fill="none" stroke="#000000" stroke-width="2" stroke-miterlimit="10" cx="171.9" cy="145.2" r="95.4"/>
<path fill="none" stroke="#F95C5C" stroke-width="6" stroke-miterlimit="10" d="M77,155.5c5.3,45.1,41.7,84.2,94,85.2
	c54.2-1.5,90.6-41.6,95.4-85.2"/>
<polygon points="129.9,181 137.7,181 153.9,129.7 172.1,179.5 190.7,130.1 206.8,181 214,181 190.9,107.7 171.9,163.6 153.5,108.3
	"/>
<path d="M242.4,91.4c2.5,2.1,2.9,5.8,0.8,8.3c-2.1,2.5-5.8,2.9-8.3,0.8c-2.5-2.1-2.9-5.8-0.8-8.3C236.1,89.6,239.8,89.3,242.4,91.4z
	"/>
<path fill="none" stroke="#000000" stroke-width="1.2" stroke-miterlimit="10" d="M88.9,162.8c1.4,6,3.4,11.9,6.1,17.7
	c20.1,42.4,70.9,60.5,113.3,40.3c39.7-18.9,58.1-64.6,43.7-105.2"/>
<g>
	<path stroke="#000000" stroke-width="0.25" stroke-miterlimit="10" d="M91.9,144.2l1.8,1l0,0.6l-7.1-4.1l7.7-2.6l0,0.6l-1.9,0.7
		L91.9,144.2z M87.7,141.9l3.7,2.1l0.3-3.4L87.7,141.9z"/>
	<path stroke="#000000" stroke-width="0.25" stroke-miterlimit="10" d="M95.3,122.1c0.3-0.1,0.6-0.1,1,0c0.3,0.1,0.5,0.2,0.7,0.4
		c0.2,0.2,0.4,0.5,0.5,0.8c0.2,0.6,0.2,1.3,0,1.9c-0.1,0.3-0.3,0.6-0.4,0.9c-0.2,0.3-0.4,0.5-0.7,0.7c-0.4,0.3-0.9,0.4-1.3,0.4
		l-0.1-0.5c0.4,0.1,0.8,0,1.2-0.3c0.2-0.1,0.4-0.3,0.5-0.6c0.2-0.2,0.3-0.5,0.4-0.8c0.2-0.6,0.2-1.1,0-1.6c-0.2-0.5-0.4-0.8-0.8-0.9
		c-0.2-0.1-0.5-0.1-0.7,0c-0.2,0.1-0.5,0.2-0.7,0.4c-0.2,0.2-0.4,0.6-0.7,1.2c0,0-0.1,0.2-0.3,0.5c-0.1,0.3-0.3,0.5-0.5,0.7
		c-0.3,0.3-0.6,0.5-0.9,0.6c-0.3,0.1-0.7,0.1-1,0c-0.3-0.1-0.5-0.2-0.7-0.4c-0.2-0.2-0.3-0.5-0.4-0.8c-0.1-0.3-0.1-0.6-0.1-0.9
		c0-0.3,0.1-0.7,0.2-1c0.2-0.7,0.6-1.2,1.1-1.6c0.4-0.3,0.9-0.5,1.3-0.4l0.1,0.5c-0.2,0-0.4-0.1-0.6,0c-0.2,0-0.4,0.1-0.6,0.3
		c-0.2,0.2-0.4,0.3-0.5,0.6c-0.2,0.2-0.3,0.5-0.4,0.8c-0.1,0.3-0.1,0.6-0.1,0.8c0,0.3,0,0.5,0.1,0.8c0.1,0.2,0.2,0.4,0.3,0.6
		c0.1,0.2,0.3,0.3,0.5,0.3c0.2,0.1,0.5,0.1,0.7,0c0.3-0.1,0.5-0.3,0.7-0.5c0.1-0.1,0.2-0.3,0.3-0.5c0.1-0.2,0.2-0.4,0.3-0.7
		c0,0,0.1-0.2,0.2-0.4c0.1-0.2,0.2-0.4,0.3-0.5c0.1-0.2,0.2-0.3,0.3-0.4C94.6,122.4,94.9,122.2,95.3,122.1z"/>
	<path stroke="#000000" stroke-width="0.25" stroke-miterlimit="10" d="M101.1,112l-4.5-4.2l0.2-0.5l5.8,5.3l-5.9-0.5l4,4.3
		l-7.8-1.1l0.2-0.5l6.2,0.9l-3.9-4.2L101.1,112z"/>
	<path stroke="#000000" stroke-width="0.25" stroke-miterlimit="10" d="M105.9,106.4l-6.1-4.1l2.7-4l0.4,0.3l-2.4,3.5l2.4,1.6
		l1.8-2.8l0.4,0.3l-1.8,2.8l2.4,1.6l2.4-3.5l0.4,0.3L105.9,106.4z"/>
	<path stroke="#000000" stroke-width="0.25" stroke-miterlimit="10" d="M111.7,98.3l-5.6-4.8l3.1-3.6l0.4,0.3l-2.8,3.2l2.2,1.9
		l2.2-2.5l0.4,0.3l-2.2,2.5l2.2,1.9l2.8-3.2l0.4,0.3L111.7,98.3z"/>
	<path stroke="#000000" stroke-width="0.25" stroke-miterlimit="10" d="M118,81.4l0.3,0.4l-2.2,1.9l4.6,5.1l-0.4,0.3l-4.6-5.1
		l-2.2,1.9l-0.3-0.4L118,81.4z"/>
	<path stroke="#000000" stroke-width="0.25" stroke-miterlimit="10" d="M132.6,80.2l-3.6-6.4l4.2-2.3l0.3,0.5l-3.7,2.1l1.4,2.5
		l2.9-1.6l0.3,0.5l-2.9,1.6l1.4,2.5l3.7-2.1l0.3,0.5L132.6,80.2z"/>
	<path stroke="#000000" stroke-width="0.25" stroke-miterlimit="10" d="M143.8,66.7l-1.1,4.4l3.8,2.4l-0.6,0.2l-3.4-2.2l-0.9,3.9
		l-0.6,0.2l1.1-4.4l-3.8-2.4l0.6-0.2l3.4,2.2l0.9-3.9L143.8,66.7z"/>
	<path stroke="#000000" stroke-width="0.25" stroke-miterlimit="10" d="M151.2,72l-1.9-7.1l2.5-0.7c0.4-0.1,0.8-0.1,1.2,0
		c0.4,0.1,0.8,0.3,1,0.5c0.3,0.3,0.5,0.6,0.6,0.9c0.1,0.4,0.1,0.7,0,1.1c-0.1,0.4-0.3,0.7-0.6,1c-0.3,0.3-0.7,0.5-1.1,0.6l-2,0.5
		l0.8,3.1L151.2,72z M150.7,68.3l2-0.5c0.3-0.1,0.6-0.2,0.9-0.4c0.2-0.2,0.4-0.5,0.5-0.7c0.1-0.3,0.1-0.5,0-0.8
		c-0.1-0.3-0.2-0.5-0.4-0.7s-0.5-0.3-0.8-0.4c-0.3-0.1-0.6,0-1,0l-2,0.5L150.7,68.3z"/>
	<path stroke="#000000" stroke-width="0.25" stroke-miterlimit="10" d="M160.9,69.8l-1-7.3l4.7-0.6l0.1,0.5l-4.2,0.6l0.4,2.9
		l3.3-0.4l0.1,0.5l-3.3,0.5l0.4,2.9l4.2-0.6l0.1,0.5L160.9,69.8z"/>
	<path stroke="#000000" stroke-width="0.25" stroke-miterlimit="10" d="M175,68.7l-3.1-3.7l0.9,0c0.6,0,1-0.1,1.4-0.2
		c0.3-0.1,0.5-0.3,0.7-0.6c0.2-0.2,0.3-0.5,0.3-0.8c0-0.3-0.1-0.5-0.2-0.8c-0.2-0.2-0.4-0.4-0.7-0.6c-0.3-0.1-0.6-0.2-1-0.2l-2.1,0
		l0.1,6.9l-0.5,0l-0.1-7.4l2.6,0c0.3,0,0.7,0,1,0.2c0.3,0.1,0.6,0.3,0.8,0.5c0.2,0.2,0.4,0.4,0.5,0.7c0.1,0.2,0.2,0.5,0.2,0.8
		c0,0.4-0.1,0.8-0.4,1.1c-0.2,0.3-0.5,0.6-0.9,0.7c-0.2,0.1-0.5,0.2-0.7,0.2c-0.2,0-0.5,0-0.7,0l2.7,3.2L175,68.7z"/>
	<path stroke="#000000" stroke-width="0.25" stroke-miterlimit="10" d="M181,69l0.7-7.3l0.5,0l-0.7,7.3L181,69z"/>
	<path stroke="#000000" stroke-width="0.25" stroke-miterlimit="10" d="M187,69.7l1.4-7.2l4.7,0.9l-0.1,0.5l-4.2-0.8l-0.6,2.8
		l3.3,0.6l-0.1,0.5l-3.3-0.6l-0.6,2.8l4.2,0.8l-0.1,0.5L187,69.7z"/>
	<path stroke="#000000" stroke-width="0.25" stroke-miterlimit="10" d="M199.1,66.4l-1.9,5.7l-0.5-0.2l2.4-7.1l2.9,7.4l1.9-5.7
		l0.5,0.2l-2.4,7.1L199.1,66.4z"/>
	<path stroke="#000000" stroke-width="0.25" stroke-miterlimit="10" d="M209.9,77.3c-0.6-0.3-1.1-0.7-1.5-1.3
		c-0.4-0.6-0.6-1.2-0.6-1.8c0-0.7,0.1-1.3,0.4-1.9c0.3-0.6,0.7-1.1,1.3-1.5c0.6-0.4,1.2-0.6,1.8-0.6c0.7-0.1,1.3,0.1,1.9,0.4
		c0.5,0.2,0.9,0.5,1.2,1c0.3,0.4,0.6,0.9,0.7,1.4l-0.5,0.1c-0.1-0.4-0.3-0.8-0.6-1.2s-0.6-0.6-1-0.8c-0.5-0.3-1.1-0.4-1.6-0.3
		c-0.6,0-1.1,0.2-1.6,0.5c-0.5,0.3-0.9,0.7-1.1,1.3c-0.3,0.5-0.4,1.1-0.3,1.7c0,0.6,0.2,1.1,0.5,1.6c0.3,0.5,0.7,0.8,1.3,1.1
		c0.4,0.2,0.9,0.3,1.4,0.3c0.5,0,0.9-0.1,1.4-0.3l0.2,0.5c-0.5,0.2-1.1,0.4-1.6,0.4C210.9,77.6,210.4,77.5,209.9,77.3z"/>
	<path stroke="#000000" stroke-width="0.25" stroke-miterlimit="10" d="M216.6,80.9l4.1-6.1l4,2.6l-0.3,0.4l-3.5-2.4l-1.6,2.4
		l2.8,1.8l-0.3,0.4l-2.8-1.8l-1.6,2.4l3.5,2.4l-0.3,0.4L216.6,80.9z"/>
</g>
</svg>
