<?xml version="1.0" encoding="UTF-8"?>
<svg id="logo1" width="294px" height="295px" viewBox="0 0 294 295" version="1.1" xmlns="http://www.w3.org/2000/svg" xmlns:xlink="http://www.w3.org/1999/xlink">
    <!-- Generator: Sketch 49.3 (51167) - http://www.bohemiancoding.com/sketch -->
    <title>M_Degree Copy 2</title>
    <desc>Created with Sketch.</desc>
    <defs></defs>
    <g id="Page-1" stroke="none" stroke-width="1" fill="none" fill-rule="evenodd">
        <g id="Homepage-2-afterAnimation" transform="translate(-364.000000, -223.000000)">
            <g id="M_Degree-Copy-2" transform="translate(368.000000, 225.000000)">
                <path d="M274.039946,82.2288269 C308.157782,154.049615 277.58847,239.927129 205.771941,274.039679 C133.952716,308.157618 48.0727672,277.589561 13.9576252,205.771468 C-20.1548223,133.952027 10.4091008,48.073166 82.2296723,13.9579213 C154.050244,-20.1546291 239.924804,10.4080389 274.039946,82.2288269 Z" id="Stroke-1" stroke="#0B0B09" stroke-width="2.416"></path>
                <path d="M0,160 C8.04610818,228.262072 62.9714757,287.538699 141.986657,289 C223.849171,286.800614 278.736807,225.927506 286,160" id="Stroke-3" stroke="#C81F5C" stroke-width="7.20600033"></path>
                <polygon id="Fill-5" fill="#0B0B09" points="80 199 91.9065024 199 116.214938 121.267319 143.76791 196.600226 171.77727 121.946602 196.085706 199 207 199 172.026332 88 143.5 172.443135 115.718161 88.888605"></polygon>
                <path d="M250.723199,63.0561204 C254.560836,66.2165704 255.105761,71.8890331 251.943832,75.7224409 C248.78054,79.56266 243.110591,80.1048406 239.275679,76.9430284 C235.440767,73.7825785 234.893117,68.1128403 238.056409,64.2726212 C241.215613,60.4419379 246.886924,59.892946 250.723199,63.0561204" id="Fill-7" fill="#0B0B09"></path>
                <path d="M18,171.039606 C20.0541816,180.089109 23.1233071,189.05249 27.2829573,197.784419 C57.748819,261.729753 134.443214,288.948236 198.583078,258.570165 C258.680712,230.106956 286.414863,161.180021 264.604367,100" id="Stroke-9" stroke="#0B0B09" stroke-width="1.2"></path>
                <path d="M15.95,139.12077 L21.6472222,142.216987 L22.0972222,137.091573 L15.95,139.12077 Z M22.4083333,142.632382 L25.1972222,144.15992 L25.1236111,145 L14,138.930989 L26,135 L25.9263889,135.8215 L22.9180556,136.818182 L22.4083333,142.632382 Z" id="Fill-11" fill="#0B0B09"></path>
                <path d="M27.6857522,109.623064 C28.165703,109.480578 28.6313075,109.479295 29.0864783,109.617929 C29.4751342,109.737309 29.8181425,109.945261 30.1115907,110.239217 C30.4050389,110.537025 30.6280596,110.901582 30.7819569,111.335457 C31.0780135,112.223744 31.0727967,113.151825 30.7650021,114.117132 C30.6150174,114.594651 30.3998221,115.029809 30.1246329,115.423891 C29.8494437,115.817972 29.5312154,116.147871 29.1686438,116.412303 C28.5374041,116.866716 27.8813843,117.057981 27.197976,116.984812 L27.0310366,116.197933 C27.6218457,116.346837 28.1852662,116.212053 28.7212983,115.79615 C29.0186592,115.590766 29.279502,115.323766 29.5064353,114.993867 C29.7320644,114.663968 29.9094375,114.298127 30.0372505,113.893777 C30.302006,113.063253 30.3085271,112.296913 30.0555095,111.590904 C29.8207509,110.914419 29.4216614,110.489529 28.8634577,110.318804 C28.5360999,110.217395 28.1983084,110.226381 27.848779,110.339342 C27.5005538,110.454871 27.1679791,110.664106 26.8523593,110.964481 C26.5641279,111.252019 26.2276406,111.820677 25.8415932,112.671739 C25.8076836,112.739773 25.6824791,112.990085 25.4646753,113.418825 C25.2481757,113.847565 25.0082003,114.198002 24.7486616,114.470137 C24.3339215,114.902728 23.8735339,115.199251 23.3635861,115.360992 C22.8549425,115.524016 22.3580369,115.531718 21.871565,115.380246 C21.4829091,115.26215 21.1464218,115.052915 20.8647115,114.756391 C20.5830012,114.4573 20.3665017,114.092743 20.2139086,113.658868 C20.070445,113.236546 19.9987133,112.787268 20.0000175,112.309749 C20.0013217,111.83223 20.0769661,111.354711 20.2295592,110.877193 C20.5347453,109.911886 21.0668647,109.146829 21.8259175,108.582021 C22.4819372,108.122474 23.1301317,107.93506 23.7757178,108.019782 L23.9426572,108.804093 C23.6752933,108.734776 23.3987999,108.730925 23.1118727,108.797675 C22.8249456,108.863141 22.5406269,108.995358 22.2576124,109.191757 C21.9576431,109.408694 21.6941918,109.680828 21.4685627,110.009443 C21.2416295,110.339342 21.0655605,110.700049 20.9416602,111.095414 C20.8164556,111.490779 20.7512449,111.888711 20.7434196,112.290494 C20.7368985,112.693561 20.7968924,113.063253 20.9207927,113.397003 C21.0368678,113.728185 21.195982,114.005454 21.396831,114.226243 C21.5989842,114.448315 21.8324385,114.599786 22.0945856,114.680656 C22.4219434,114.782064 22.7845149,114.762809 23.1823003,114.622891 C23.5787814,114.48169 23.9243982,114.262185 24.215238,113.964377 C24.3900027,113.779531 24.5439,113.561311 24.6743214,113.312282 C24.8060471,113.06197 24.963857,112.737205 25.1490554,112.337989 C25.1816608,112.268672 25.2664347,112.095379 25.402073,111.81811 C25.5351028,111.540841 25.6824791,111.276409 25.8415932,111.028664 C26.0007073,110.782202 26.1637341,110.583236 26.3267609,110.427914 C26.7545432,110.035116 27.2058013,109.765549 27.6857522,109.623064" id="Fill-13" fill="#0B0B09"></path>
                <polygon id="Fill-15" fill="#0B0B09" points="35.8792221 94.1818715 29.2459291 87.7521 29.5885363 87 38 95.1664388 29.4491486 94.4416878 35.3438169 101 24 99.2783747 24.3347911 98.5413167 33.3116218 99.9033014 27.5667628 93.4981442"></polygon>
                <polygon id="Fill-17" fill="#0B0B09" points="44.0739762 85 35 78.9070591 38.9273448 73 39.5680317 73.4301837 36.0620872 78.7065723 39.6354029 81.1057756 42.3685601 76.9951317 43.010568 77.4253153 40.2787318 81.537287 43.8361955 83.9271963 47.343461 78.6508077 48 79.0929409"></polygon>
                <polygon id="Fill-19" fill="#0B0B09" points="52.3386667 74 44 66.5731978 48.6613333 61 49.2506667 61.5256695 45.088 66.5043929 48.372 69.4286017 51.616 65.5480047 52.2053333 66.0736742 48.9626667 69.9542712 52.2333333 72.8674712 56.3973333 67.8901238 57 68.4254261"></polygon>
                <polygon id="Fill-21" fill="#0B0B09" points="61.9872315 48 62.497852 48.6007561 59.2976134 51.5866651 66 59.4666056 65.427685 60 58.7239857 52.122809 55.5106205 55.1210906 55 54.5203345"></polygon>
                <polygon id="Fill-23" fill="#0B0B09" points="84.5608411 46 79 36.457137 85.4391589 33 85.8321269 33.6750153 80.0810065 36.7628793 82.2719752 40.5217878 86.7531886 38.1142334 87.1461565 38.7905722 82.6649431 41.1968031 84.8476387 44.9411525 90.5960014 41.851965 91 42.542863"></polygon>
                <polygon id="Fill-25" fill="#0B0B09" points="100.960874 26 99.4153896 32.8230298 105 36.5877938 104.154874 36.9500296 99.2367134 33.6193956 97.8855559 39.6377642 97.0391262 40 98.5859146 33.1783528 93 29.4108236 93.8464297 29.0499704 98.7645908 32.381987 100.115748 26.3608532"></polygon>
                <path d="M111.112762,28.3167514 L114.102568,27.4914791 C114.585597,27.3584582 115.004484,27.1331371 115.359229,26.8155159 C115.712665,26.4978946 115.966616,26.1300512 116.117153,25.713343 C116.269,25.2952774 116.291253,24.8826413 116.186531,24.4713625 C116.077882,24.0478675 115.857967,23.6963123 115.526784,23.412625 C115.195602,23.1289376 114.800277,22.9402652 114.34081,22.847965 C113.881343,22.7529501 113.410095,22.7746678 112.927066,22.9076886 L109.920243,23.737033 L111.112762,28.3167514 Z M111.79738,34 L109,23.1696583 L112.730713,22.1407826 C113.340717,21.9724705 113.942867,21.9548249 114.533236,22.0892031 C115.123605,22.2249387 115.632815,22.4828363 116.058247,22.8642532 C116.483679,23.2470276 116.766428,23.7153153 116.91042,24.2718312 C117.049177,24.8161308 117.026923,25.3672173 116.842351,25.9223758 C116.657779,26.4816064 116.342305,26.9702545 115.89331,27.3896774 C115.445625,27.811815 114.915471,28.1063612 114.304157,28.2746733 L111.314351,29.101303 L112.51996,33.8018261 L111.79738,34 Z" id="Fill-27" fill="#0B0B09"></path>
                <polygon id="Fill-29" fill="#0B0B09" points="126.568692 30 125 18.9751936 132.43271 18 132.543458 18.7798855 125.905607 19.6513638 126.523832 23.9925918 131.695327 23.3150746 131.806075 24.0949602 126.634579 24.7738242 127.25 29.0988888 133.886449 28.2274105 134 29.0248064"></polygon>
                <path d="M148.935287,28.9283664 L144.084772,23.4497237 L145.503925,23.4351317 C146.377464,23.4258459 147.086342,23.3117628 147.627769,23.0915558 C148.026862,22.9071657 148.374324,22.6312437 148.665969,22.2624634 C148.956218,21.8963362 149.098552,21.4930656 149.094366,21.0539783 C149.09018,20.6599936 148.9618,20.2872336 148.709227,19.937025 C148.456654,19.5854898 148.098029,19.2989555 147.634746,19.0787485 C147.171463,18.8598681 146.638409,18.7524178 146.034188,18.7577239 L142.807954,18.7908876 L142.923775,28.9907142 L142.125589,29 L142,18.0400615 L146.027211,18.0002651 C146.570033,17.9949589 147.07797,18.0692456 147.553811,18.2284313 C148.028257,18.3862905 148.445491,18.6157833 148.804117,18.9142566 C149.148788,19.2047706 149.41671,19.5324279 149.603698,19.9012082 C149.792081,20.2699885 149.888366,20.6520343 149.892552,21.046019 C149.898134,21.6641903 149.711146,22.2186873 149.326007,22.7121631 C148.940869,23.2056389 148.483168,23.5611538 147.955695,23.7800342 C147.590092,23.941873 147.232862,24.0426906 146.8854,24.0851402 C146.536543,24.1289162 146.168149,24.1514676 145.777429,24.1554472 L150,28.9190806 L148.935287,28.9283664 Z" id="Fill-31" fill="#0B0B09"></path>
                <polygon id="Fill-33" fill="#0B0B09" points="157 28.9309012 158.139834 18 159 18.0690988 157.861678 29"></polygon>
                <polygon id="Fill-35" fill="#0B0B09" points="166 29.6481279 168.087758 19 175 20.3492446 174.852567 21.1020363 168.678806 19.895993 167.857394 24.0908693 172.667398 25.0315305 172.518649 25.7843223 167.708644 24.843661 166.888548 29.0240858 173.062308 30.2288154 172.910926 31"></polygon>
                <polygon id="Fill-37" fill="#0B0B09" points="184.723945 25.4352064 181.758219 34.3002486 181 34.0482347 184.694567 23 189.264864 34.5480855 192.241781 25.6496271 193 25.9030333 189.288645 37"></polygon>
                <path d="M201.105991,41.4417839 C200.202137,41.007521 199.474776,40.3828604 198.927918,39.5651941 C198.38106,38.7475278 198.07621,37.85292 198.012031,36.8800666 C197.947852,35.9059091 198.140389,34.9747867 198.590978,34.081483 C199.041568,33.1894833 199.680683,32.4748404 200.506987,31.9349459 C201.334628,31.3976595 202.247841,31.0911977 203.245289,31.0168644 C204.244073,30.941227 205.194724,31.1198877 206.098577,31.5554548 C206.799197,31.8932149 207.402212,32.3561679 207.90361,32.9482261 C208.407682,33.5415885 208.771363,34.2131964 209,34.9630498 L208.233864,35.1664884 C208.052024,34.5261787 207.747174,33.9471614 207.319314,33.4333487 C206.890117,32.9195361 206.371338,32.5178754 205.760301,32.2244545 C204.97812,31.8475716 204.161175,31.6923846 203.306793,31.7562851 C202.453748,31.8214898 201.666219,32.0862207 200.944206,32.5517819 C200.22353,33.0186472 199.667313,33.6393954 199.276891,34.4114185 C198.886469,35.1847457 198.720673,35.9919792 198.782178,36.8357274 C198.842346,37.6768674 199.107084,38.4475864 199.575056,39.1465802 C200.044364,39.84427 200.668772,40.3828604 201.450952,40.7597433 C202.100764,41.0701174 202.788014,41.2292168 203.514038,41.231825 C204.237388,41.2357372 204.93266,41.0883747 205.599853,40.7936497 L205.939467,41.4730822 C205.165308,41.8290996 204.357723,42.003848 203.514038,41.9999358 C202.670352,41.9947194 201.868115,41.8082341 201.105991,41.4417839" id="Fill-39" fill="#0B0B09"></path>
                <polygon id="Fill-41" fill="#0B0B09" points="211 47.0796586 217.08634 38 223 41.9190205 222.568298 42.5622841 217.285588 39.0619793 214.890635 42.6375737 219.007084 45.3664906 218.57671 46.0071124 214.458933 43.2821581 212.073279 46.8432229 217.35466 50.3435277 216.914988 51"></polygon>
            </g>
        </g>
    </g>
</svg>
