<?xml version="1.0" encoding="UTF-8"?>
<svg width="287px" height="286px" viewBox="0 0 287 286" version="1.1" xmlns="http://www.w3.org/2000/svg" xmlns:xlink="http://www.w3.org/1999/xlink">
    <!-- Generator: Sketch 49.3 (51167) - http://www.bohemiancoding.com/sketch -->
    <title>M_Degree Copy 2</title>
    <desc>Created with Sketch.</desc>
    <defs></defs>
    <g id="Page-1" stroke="none" stroke-width="1" fill="none" fill-rule="evenodd">
        <g id="Homepage-1" transform="translate(-369.000000, -226.000000)">
            <g id="M_Degree-Copy-2" transform="translate(372.000000, 227.000000)">
                <path d="M267.379253,80.2302096 C300.667836,150.305353 270.841528,234.095566 200.770539,267.378992 C130.696921,300.667676 46.9043319,270.842593 13.6183774,200.770078 C-19.6649481,130.696248 10.1561018,46.904721 80.2310344,13.6186662 C150.305967,-19.6647597 234.093298,10.1550658 267.379253,80.2302096 Z" id="Stroke-1" stroke="#FFFFFF" stroke-width="1.8"></path>
                <path d="M1,155 C8.84917546,221.674582 62.4302158,279.572683 139.511459,281 C219.370345,278.851763 272.914578,219.394308 280,155" id="Stroke-3" stroke="#FF2F61" stroke-width="6.40199995"></path>
                <polygon id="Fill-5" fill="#FFFFFF" points="78 194 89.6252465 194 113.359467 118.368202 140.261581 191.665085 167.609303 119.029126 191.343524 194 202 194 167.852482 86 140 168.160888 112.874425 86.8645887"></polygon>
                <path d="M243.905243,60.9418915 C247.529678,63.9267609 248.04433,69.2840868 245.058063,72.9045275 C242.07051,76.5314011 236.715559,77.0434606 233.093697,74.0573046 C229.471835,71.0724353 228.95461,65.7176825 231.942164,62.0908089 C234.925857,58.4729414 240.282095,57.954449 243.905243,60.9418915" id="Fill-7" fill="#FFFFFF"></path>
                <path d="M18,166.377861 C20.0056576,175.21568 23.0022841,183.969391 27.0636749,192.497064 C56.8098705,254.946601 131.692587,281.528394 194.317336,251.860921 C252.995341,224.063518 280.074354,156.74891 258.779067,97" id="Stroke-9" stroke="#FFFFFF" stroke-width="1.2"></path>
                <path d="M15.7875,136.12077 L21.0099537,139.216987 L21.4224537,134.091573 L15.7875,136.12077 Z M21.7076389,139.632382 L24.2641204,141.15992 L24.1966435,142 L14,135.930989 L25,132 L24.9325231,132.8215 L22.1748843,133.818182 L21.7076389,139.632382 Z" id="Fill-11" stroke="#FFFFFF" stroke-width="0.5" fill="#FFFFFF"></path>
                <path d="M26.6857522,106.623064 C27.165703,106.480578 27.6313075,106.479295 28.0864783,106.617929 C28.4751342,106.737309 28.8181425,106.945261 29.1115907,107.239217 C29.4050389,107.537025 29.6280596,107.901582 29.7819569,108.335457 C30.0780135,109.223744 30.0727967,110.151825 29.7650021,111.117132 C29.6150174,111.594651 29.3998221,112.029809 29.1246329,112.423891 C28.8494437,112.817972 28.5312154,113.147871 28.1686438,113.412303 C27.5374041,113.866716 26.8813843,114.057981 26.197976,113.984812 L26.0310366,113.197933 C26.6218457,113.346837 27.1852662,113.212053 27.7212983,112.79615 C28.0186592,112.590766 28.279502,112.323766 28.5064353,111.993867 C28.7320644,111.663968 28.9094375,111.298127 29.0372505,110.893777 C29.302006,110.063253 29.3085271,109.296913 29.0555095,108.590904 C28.8207509,107.914419 28.4216614,107.489529 27.8634577,107.318804 C27.5360999,107.217395 27.1983084,107.226381 26.848779,107.339342 C26.5005538,107.454871 26.1679791,107.664106 25.8523593,107.964481 C25.5641279,108.252019 25.2276406,108.820677 24.8415932,109.671739 C24.8076836,109.739773 24.6824791,109.990085 24.4646753,110.418825 C24.2481757,110.847565 24.0082003,111.198002 23.7486616,111.470137 C23.3339215,111.902728 22.8735339,112.199251 22.3635861,112.360992 C21.8549425,112.524016 21.3580369,112.531718 20.871565,112.380246 C20.4829091,112.26215 20.1464218,112.052915 19.8647115,111.756391 C19.5830012,111.4573 19.3665017,111.092743 19.2139086,110.658868 C19.070445,110.236546 18.9987133,109.787268 19.0000175,109.309749 C19.0013217,108.83223 19.0769661,108.354711 19.2295592,107.877193 C19.5347453,106.911886 20.0668647,106.146829 20.8259175,105.582021 C21.4819372,105.122474 22.1301317,104.93506 22.7757178,105.019782 L22.9426572,105.804093 C22.6752933,105.734776 22.3987999,105.730925 22.1118727,105.797675 C21.8249456,105.863141 21.5406269,105.995358 21.2576124,106.191757 C20.9576431,106.408694 20.6941918,106.680828 20.4685627,107.009443 C20.2416295,107.339342 20.0655605,107.700049 19.9416602,108.095414 C19.8164556,108.490779 19.7512449,108.888711 19.7434196,109.290494 C19.7368985,109.693561 19.7968924,110.063253 19.9207927,110.397003 C20.0368678,110.728185 20.195982,111.005454 20.396831,111.226243 C20.5989842,111.448315 20.8324385,111.599786 21.0945856,111.680656 C21.4219434,111.782064 21.7845149,111.762809 22.1823003,111.622891 C22.5787814,111.48169 22.9243982,111.262185 23.215238,110.964377 C23.3900027,110.779531 23.5439,110.561311 23.6743214,110.312282 C23.8060471,110.06197 23.963857,109.737205 24.1490554,109.337989 C24.1816608,109.268672 24.2664347,109.095379 24.402073,108.81811 C24.5351028,108.540841 24.6824791,108.276409 24.8415932,108.028664 C25.0007073,107.782202 25.1637341,107.583236 25.3267609,107.427914 C25.7545432,107.035116 26.2058013,106.765549 26.6857522,106.623064" id="Fill-13" stroke="#FFFFFF" stroke-width="0.5" fill="#FFFFFF"></path>
                <polygon id="Fill-15" stroke="#FFFFFF" stroke-width="0.5" fill="#FFFFFF" points="35.8792221 91.6688806 29.2459291 85.6983786 29.5885363 85 38 92.5831217 29.4491486 91.9101387 35.3438169 98 24 96.4013479 24.3347911 95.7169369 33.3116218 96.981637 27.5667628 91.033991"></polygon>
                <polygon id="Fill-17" stroke="#FFFFFF" stroke-width="0.5" fill="#FFFFFF" points="43.0739762 84 34 77.9070591 37.9273448 72 38.5680317 72.4301837 35.0620872 77.7065723 38.6354029 80.1057756 41.3685601 75.9951317 42.010568 76.4253153 39.2787318 80.537287 42.8361955 82.9271963 46.343461 77.6508077 47 78.0929409"></polygon>
                <polygon id="Fill-19" stroke="#FFFFFF" stroke-width="0.5" fill="#FFFFFF" points="51.3386667 71 43 64.1444903 47.6613333 59 48.2506667 59.4852334 44.088 64.0809781 47.372 66.7802477 50.616 63.1981581 51.2053333 63.6833916 47.9626667 67.2654811 51.2333333 69.9545888 55.3973333 65.3601143 56 65.8542394"></polygon>
                <polygon id="Fill-21" stroke="#FFFFFF" stroke-width="0.5" fill="#FFFFFF" points="60.9872315 47 61.497852 47.5506931 58.2976134 50.2877764 65 57.5110551 64.427685 58 57.7239857 50.7792416 54.5106205 53.5276664 54 52.9769733"></polygon>
                <polygon id="Fill-23" stroke="#FFFFFF" stroke-width="0.5" fill="#FFFFFF" points="82.0974377 45 77 35.457137 82.9025623 32 83.2627829 32.6750153 77.9909227 35.7628793 79.9993106 39.5217878 84.1070895 37.1142334 84.4673101 37.7905722 80.3595312 40.1968031 82.3603355 43.9411525 87.6296679 40.851965 88 41.542863"></polygon>
                <polygon id="Fill-25" stroke="#FFFFFF" stroke-width="0.5" fill="#FFFFFF" points="98.9608738 25 97.4153896 31.3356706 103 34.8315228 102.154874 35.1678847 97.2367134 32.0751531 95.8855559 37.6636382 95.0391262 38 96.5859146 31.6656133 91 28.1671934 91.8464297 27.8321153 96.7645908 30.9261308 98.1157483 25.335078"></polygon>
                <path d="M109.112762,27.3167514 L112.102568,26.4914791 C112.585597,26.3584582 113.004484,26.1331371 113.359229,25.8155159 C113.712665,25.4978946 113.966616,25.1300512 114.117153,24.713343 C114.269,24.2952774 114.291253,23.8826413 114.186531,23.4713625 C114.077882,23.0478675 113.857967,22.6963123 113.526784,22.412625 C113.195602,22.1289376 112.800277,21.9402652 112.34081,21.847965 C111.881343,21.7529501 111.410095,21.7746678 110.927066,21.9076886 L107.920243,22.737033 L109.112762,27.3167514 Z M109.79738,33 L107,22.1696583 L110.730713,21.1407826 C111.340717,20.9724705 111.942867,20.9548249 112.533236,21.0892031 C113.123605,21.2249387 113.632815,21.4828363 114.058247,21.8642532 C114.483679,22.2470276 114.766428,22.7153153 114.91042,23.2718312 C115.049177,23.8161308 115.026923,24.3672173 114.842351,24.9223758 C114.657779,25.4816064 114.342305,25.9702545 113.89331,26.3896774 C113.445625,26.811815 112.915471,27.1063612 112.304157,27.2746733 L109.314351,28.101303 L110.51996,32.8018261 L109.79738,33 Z" id="Fill-27" stroke="#FFFFFF" stroke-width="0.5" fill="#FFFFFF"></path>
                <polygon id="Fill-29" stroke="#FFFFFF" stroke-width="0.5" fill="#FFFFFF" points="123.394393 30 122 18.9751936 128.606854 18 128.705296 18.7798855 122.804984 19.6513638 123.354517 23.9925918 127.951402 23.3150746 128.049844 24.0949602 123.45296 24.7738242 124 29.0988888 129.899065 28.2274105 130 29.0248064"></polygon>
                <path d="M144.935287,27.9283664 L140.084772,22.4497237 L141.503925,22.4351317 C142.377464,22.4258459 143.086342,22.3117628 143.627769,22.0915558 C144.026862,21.9071657 144.374324,21.6312437 144.665969,21.2624634 C144.956218,20.8963362 145.098552,20.4930656 145.094366,20.0539783 C145.09018,19.6599936 144.9618,19.2872336 144.709227,18.937025 C144.456654,18.5854898 144.098029,18.2989555 143.634746,18.0787485 C143.171463,17.8598681 142.638409,17.7524178 142.034188,17.7577239 L138.807954,17.7908876 L138.923775,27.9907142 L138.125589,28 L138,17.0400615 L142.027211,17.0002651 C142.570033,16.9949589 143.07797,17.0692456 143.553811,17.2284313 C144.028257,17.3862905 144.445491,17.6157833 144.804117,17.9142566 C145.148788,18.2047706 145.41671,18.5324279 145.603698,18.9012082 C145.792081,19.2699885 145.888366,19.6520343 145.892552,20.046019 C145.898134,20.6641903 145.711146,21.2186873 145.326007,21.7121631 C144.940869,22.2056389 144.483168,22.5611538 143.955695,22.7800342 C143.590092,22.941873 143.232862,23.0426906 142.8854,23.0851402 C142.536543,23.1289162 142.168149,23.1514676 141.777429,23.1554472 L146,27.9190806 L144.935287,27.9283664 Z" id="Fill-31" stroke="#FFFFFF" stroke-width="0.5" fill="#FFFFFF"></path>
                <polygon id="Fill-33" stroke="#FFFFFF" stroke-width="0.5" fill="#FFFFFF" points="154 28.9309012 155.139834 18 156 18.0690988 154.861678 29"></polygon>
                <polygon id="Fill-35" stroke="#FFFFFF" stroke-width="0.5" fill="#FFFFFF" points="162 29.6481279 164.087758 19 171 20.3492446 170.852567 21.1020363 164.678806 19.895993 163.857394 24.0908693 168.667398 25.0315305 168.518649 25.7843223 163.708644 24.843661 162.888548 29.0240858 169.062308 30.2288154 168.910926 31"></polygon>
                <polygon id="Fill-37" stroke="#FFFFFF" stroke-width="0.5" fill="#FFFFFF" points="180.413616 24.2612631 177.695034 32.493088 177 32.2590751 180.386687 22 184.576125 32.7232223 187.304966 24.460368 188 24.6956738 184.597925 35"></polygon>
                <path d="M196.105991,40.4417839 C195.202137,40.007521 194.474776,39.3828604 193.927918,38.5651941 C193.38106,37.7475278 193.07621,36.85292 193.012031,35.8800666 C192.947852,34.9059091 193.140389,33.9747867 193.590978,33.081483 C194.041568,32.1894833 194.680683,31.4748404 195.506987,30.9349459 C196.334628,30.3976595 197.247841,30.0911977 198.245289,30.0168644 C199.244073,29.941227 200.194724,30.1198877 201.098577,30.5554548 C201.799197,30.8932149 202.402212,31.3561679 202.90361,31.9482261 C203.407682,32.5415885 203.771363,33.2131964 204,33.9630498 L203.233864,34.1664884 C203.052024,33.5261787 202.747174,32.9471614 202.319314,32.4333487 C201.890117,31.9195361 201.371338,31.5178754 200.760301,31.2244545 C199.97812,30.8475716 199.161175,30.6923846 198.306793,30.7562851 C197.453748,30.8214898 196.666219,31.0862207 195.944206,31.5517819 C195.22353,32.0186472 194.667313,32.6393954 194.276891,33.4114185 C193.886469,34.1847457 193.720673,34.9919792 193.782178,35.8357274 C193.842346,36.6768674 194.107084,37.4475864 194.575056,38.1465802 C195.044364,38.84427 195.668772,39.3828604 196.450952,39.7597433 C197.100764,40.0701174 197.788014,40.2292168 198.514038,40.231825 C199.237388,40.2357372 199.93266,40.0883747 200.599853,39.7936497 L200.939467,40.4730822 C200.165308,40.8290996 199.357723,41.003848 198.514038,40.9999358 C197.670352,40.9947194 196.868115,40.8082341 196.105991,40.4417839" id="Fill-39" stroke="#FFFFFF" stroke-width="0.5" fill="#FFFFFF"></path>
                <polygon id="Fill-41" stroke="#FFFFFF" stroke-width="0.5" fill="#FFFFFF" points="206 46.0796586 212.08634 37 218 40.9190205 217.568298 41.5622841 212.285588 38.0619793 209.890635 41.6375737 214.007084 44.3664906 213.57671 45.0071124 209.458933 42.2821581 207.073279 45.8432229 212.35466 49.3435277 211.914988 50"></polygon>
            </g>
        </g>
    </g>
</svg>