<?xml version="1.0" encoding="UTF-8"?>
<svg width="319px" height="142px" viewBox="0 0 319 142" version="1.1" xmlns="http://www.w3.org/2000/svg" xmlns:xlink="http://www.w3.org/1999/xlink">
    <!-- Generator: Sketch 49.3 (51167) - http://www.bohemiancoding.com/sketch -->
    <title>second-logo</title>
    <desc>Created with Sketch.</desc>
    <defs></defs>
    <g id="Page-1" stroke="none" stroke-width="1" fill="none" fill-rule="evenodd">
        <g id="second-logo">
            <g id="by-Mauro-&amp;-Maya" transform="translate(180.000000, 126.000000)" fill="#000000" font-family="Kiona-Regular, Kiona" font-size="15" font-weight="normal" stroke="#908B8B">
                <text>
                    <tspan x="0" y="15">by Mauro &amp; Maya</tspan>
                </text>
            </g>
            <polygon id="Fill-5" fill="#0B0B09" fill-rule="nonzero" points="51.4 141.4 60.7001972 141.4 79.6875739 80.8945616 101.209265 139.532068 123.087442 81.423301 142.074819 141.4 150.6 141.4 123.281985 55 101 120.72871 79.2995399 55.6916709"></polygon>
            <path d="M184.124195,35.7535132 C187.023742,38.1414087 187.435464,42.4272694 185.046451,45.323622 C182.656408,48.2251209 178.372447,48.6347685 175.474958,46.2458437 C172.577468,43.8579482 172.163688,39.574146 174.553731,36.6726471 C176.940686,33.7783531 181.225676,33.3635592 184.124195,35.7535132" id="Fill-7" fill="#0B0B09" fill-rule="nonzero"></path>
            <path d="M1.76,95.0966158 L6.31777778,97.5735899 L6.67777778,93.4732581 L1.76,95.0966158 Z M6.92666667,97.9059058 L9.15777778,99.1279363 L9.09888889,99.8 L0.2,94.944791 L9.8,91.8 L9.74111111,92.4571997 L7.33444444,93.2545455 L6.92666667,97.9059058 Z" id="Fill-11" fill="#0B0B09" fill-rule="nonzero"></path>
            <path d="M10.3486017,72.4427234 C10.7325624,72.3160697 11.105046,72.3149287 11.4691827,72.4381593 C11.7801073,72.5442746 12.054514,72.7291206 12.2892726,72.9904153 C12.5240312,73.255133 12.7024477,73.579184 12.8255655,73.9648503 C13.0624108,74.7544394 13.0582373,75.5794003 12.8120017,76.4374508 C12.692014,76.861912 12.5198577,77.2487194 12.2997063,77.5990139 C12.0795549,77.9493085 11.8249723,78.2425518 11.534915,78.4776029 C11.0299233,78.8815257 10.5051075,79.0515383 9.95838084,78.9864999 L9.82482929,78.2870518 C10.2974765,78.4194107 10.748213,78.2996031 11.1770387,77.9299111 C11.4149273,77.7473471 11.6236016,77.510014 11.8051482,77.2167707 C11.9856515,76.9235273 12.12755,76.5983353 12.2298004,76.2389125 C12.4416048,75.5006696 12.4468217,74.8194778 12.2444076,74.1919143 C12.0566008,73.5905943 11.7373291,73.2129151 11.2907661,73.0611588 C11.0288799,72.9710179 10.7586467,72.979005 10.4790232,73.0794152 C10.200443,73.1821074 9.93438329,73.3680944 9.68188741,73.6350942 C9.45130233,73.8906837 9.1821125,74.3961577 8.87327456,75.152657 C8.8461469,75.2131313 8.74598325,75.4356312 8.57174022,75.8167334 C8.39854056,76.1978356 8.20656022,76.5093354 7.99892931,76.7512326 C7.6671372,77.1357579 7.29882709,77.3993346 6.89086886,77.5431037 C6.48395401,77.6880139 6.0864295,77.69486 5.69725196,77.5602191 C5.38632728,77.4552448 5.11713745,77.2692578 4.89176923,77.0056811 C4.666401,76.7398224 4.49320134,76.4157713 4.37112689,76.030105 C4.25635603,75.6547079 4.1989706,75.2553493 4.20001397,74.8308881 C4.20105735,74.4064269 4.26157289,73.9819657 4.38364734,73.5575045 C4.62779626,72.699454 5.0534918,72.0194033 5.66073396,71.5173524 C6.18554978,71.1088656 6.70410538,70.942276 7.22057423,71.0175836 L7.35412577,71.7147497 C7.14023463,71.6531344 6.91903989,71.6497113 6.68949818,71.7090446 C6.45995647,71.7672368 6.2325015,71.8847624 6.0060899,72.0593391 C5.76611447,72.2521723 5.55535345,72.4940695 5.37485019,72.7861719 C5.19330357,73.0794152 5.05244842,73.4000431 4.95332814,73.7514787 C4.85316448,74.1029143 4.80099591,74.456632 4.79473568,74.8137727 C4.78951883,75.1720545 4.83751391,75.5006696 4.9366342,75.797336 C5.02949425,76.0917203 5.15678557,76.3381817 5.31746476,76.5344379 C5.47918733,76.7318352 5.66595082,76.8664761 5.87566847,76.9383606 C6.1375547,77.0285016 6.42761195,77.0113862 6.74584024,76.8870145 C7.06302515,76.7615018 7.33951857,76.5663866 7.5721904,76.3016689 C7.71200217,76.1373613 7.83512,75.9433871 7.93945714,75.7220283 C8.04483765,75.4995285 8.1710856,75.2108493 8.31924434,74.8559906 C8.34532862,74.7943753 8.41314776,74.640337 8.52165839,74.3938756 C8.62808228,74.1474143 8.74598325,73.9123632 8.87327456,73.6921455 C9.00056587,73.4730687 9.1309873,73.2962099 9.26140873,73.1581459 C9.60363455,72.8089924 9.96464106,72.5693772 10.3486017,72.4427234" id="Fill-13" fill="#0B0B09" fill-rule="nonzero"></path>
            <polygon id="Fill-15" fill="#0B0B09" fill-rule="nonzero" points="17.7033777 59.9454972 12.3967433 54.80168 12.6708291 54.2 19.4 60.733151 12.5593189 60.1533503 17.2750535 65.4 8.2 64.0226997 8.46783288 63.4330533 15.6492975 64.5226411 11.0534103 59.3985153"></polygon>
            <polygon id="Fill-17" fill="#0B0B09" fill-rule="nonzero" points="22.659181 54.2 15.4 49.3256473 18.5418758 44.6 19.0544254 44.9441469 16.2496697 49.1652578 19.1083223 51.0846205 21.2948481 47.7961053 21.8084544 48.1402523 19.6229855 51.4298296 22.4689564 53.341757 25.2747688 49.1206462 25.8 49.4743527"></polygon>
            <polygon id="Fill-19" fill="#0B0B09" fill-rule="nonzero" points="30.0709333 44.6 23.4 38.6585583 27.1290667 34.2 27.6005333 34.6205356 24.2704 38.6035143 26.8976 40.9428813 29.4928 37.8384037 29.9642667 38.2589393 27.3701333 41.363417 29.9866667 43.6939769 33.3178667 39.7120991 33.8 40.1403408"></polygon>
            <polygon id="Fill-21" fill="#0B0B09" fill-rule="nonzero" points="36.9897852 24.6 37.3982816 25.0806049 34.8380907 27.4693321 40.2 33.7732845 39.742148 34.2 34.3791885 27.8982472 31.8084964 30.2968725 31.4 29.8162676"></polygon>
            <polygon id="Fill-23" fill="#0B0B09" fill-rule="nonzero" points="55.0486729 23 50.6 15.3657096 55.7513271 12.6 56.0657015 13.1400122 51.4648052 15.6103034 53.2175801 18.6174303 56.8025508 16.6913867 57.1169252 17.2324577 53.5319545 19.1574425 55.278111 22.152922 59.8768011 19.681572 60.2 20.2342904"></polygon>
            <polygon id="Fill-25" fill="#0B0B09" fill-rule="nonzero" points="67.3686991 7 66.1323117 12.0685364 70.6 14.8652183 69.9238996 15.1343077 65.9893707 12.6601225 64.9084447 17.1309105 64.2313009 17.4 65.4687317 12.3324906 61 9.53375469 61.6771438 9.26569228 65.6116726 11.7409046 66.6925986 7.26806241"></polygon>
            <path d="M75.7014855,8.8534011 L78.3923113,8.19318325 C78.8270375,8.08676656 79.2040359,7.90650971 79.5233064,7.65241271 C79.8413987,7.39831571 80.069954,7.10404098 80.2054378,6.7706744 C80.3420997,6.43622194 80.3621277,6.10611302 80.2678781,5.77708998 C80.1700942,5.43829398 79.97217,5.15704986 79.6741057,4.93009998 C79.3760414,4.70315009 79.0202492,4.55221213 78.6067291,4.47837197 C78.193209,4.40236005 77.7690859,4.4197342 77.3343596,4.5261509 L74.6282183,5.1896264 L75.7014855,8.8534011 Z M76.3176422,13.4 L73.8,4.73572663 L77.1576417,3.91262609 C77.7066455,3.7779764 78.2485807,3.7638599 78.7799127,3.87136247 C79.3112448,3.97995093 79.7695334,4.18626901 80.1524224,4.49140259 C80.5353113,4.79762205 80.7897852,5.17225225 80.9193784,5.61746494 C81.0442591,6.05290467 81.0242311,6.49377383 80.8581162,6.93790064 C80.6920013,7.3852851 80.4080744,7.77620356 80.0039793,8.11174191 C79.6010623,8.44945202 79.1239237,8.68508899 78.5737417,8.81973868 L75.8829159,9.48104241 L76.9679644,13.2414608 L76.3176422,13.4 Z" id="Fill-27" fill="#0B0B09" fill-rule="nonzero"></path>
            <polygon id="Fill-29" fill="#0B0B09" fill-rule="nonzero" points="87.8549533 11 86.6 2.1801549 92.5461682 1.4 92.6347664 2.02390841 87.324486 2.72109103 87.8190654 6.19407341 91.9562617 5.65205971 92.0448598 6.27596812 87.9076636 6.81905938 88.4 10.279111 93.7091589 9.58192839 93.8 10.2198451"></polygon>
            <path d="M104.254701,9.34269313 L100.859341,4.95977899 L101.852747,4.94810537 C102.464225,4.9406767 102.96044,4.84941021 103.339438,4.67324465 C103.618803,4.52573253 103.862027,4.30499496 104.066178,4.00997072 C104.269353,3.71706895 104.368987,3.39445251 104.366056,3.04318264 C104.363126,2.72799486 104.27326,2.4297869 104.096459,2.14962 C103.919658,1.86839185 103.66862,1.63916438 103.344322,1.46299882 C103.020024,1.2878945 102.646886,1.2019342 102.223932,1.20617915 L99.9655678,1.23271011 L100.046642,9.39257133 L99.4879121,9.4 L99.4,0.632049239 L102.219048,0.600212091 C102.599023,0.595967138 102.954579,0.655396482 103.287668,0.782745077 C103.61978,0.909032433 103.911844,1.09262666 104.162882,1.33140527 C104.404151,1.56381646 104.591697,1.82594232 104.722589,2.12096656 C104.854457,2.41599081 104.921856,2.72162743 104.924786,3.03681521 C104.928694,3.53135225 104.797802,3.97494986 104.528205,4.3697305 C104.258608,4.76451114 103.938217,5.04892301 103.568987,5.22402732 C103.313065,5.3534984 103.063004,5.43415251 102.81978,5.46811213 C102.57558,5.503133 102.317705,5.52117405 102.0442,5.52435776 L105,9.33526446 L104.254701,9.34269313 Z" id="Fill-31" fill="#0B0B09" fill-rule="nonzero"></path>
            <polygon id="Fill-33" fill="#0B0B09" fill-rule="nonzero" points="111.4 9.34472095 112.311867 0.6 113 0.655279053 112.089342 9.4"></polygon>
            <polygon id="Fill-35" fill="#0B0B09" fill-rule="nonzero" points="117.8 9.9185023 119.470206 1.4 125 2.47939566 124.882054 3.08162908 119.943045 2.11679439 119.285915 5.47269542 123.133918 6.22522444 123.014919 6.82745785 119.166915 6.07492884 118.510838 9.41926867 123.449846 10.3830523 123.328741 11"></polygon>
            <polygon id="Fill-37" fill="#0B0B09" fill-rule="nonzero" points="132.779156 6.40901044 130.406575 12.9944704 129.8 12.8072601 132.755654 4.6 136.411891 13.1785778 138.793425 6.56829438 139.4 6.75653904 136.430916 15"></polygon>
            <path d="M145.084792,19.3534272 C144.36171,19.0060168 143.779821,18.5062883 143.342334,17.8521553 C142.904848,17.1980222 142.660968,16.482336 142.609625,15.7040533 C142.558282,14.9247273 142.712311,14.1798293 143.072783,13.4651864 C143.433254,12.7515867 143.944547,12.1798723 144.60559,11.7479567 C145.267702,11.3181276 145.998273,11.0729582 146.796231,11.0134915 C147.595259,10.9529816 148.355779,11.0959102 149.078862,11.4443638 C149.639358,11.7145719 150.121769,12.0849343 150.522888,12.5585809 C150.926146,13.0332708 151.21709,13.5705571 151.4,14.1704399 L150.787091,14.3331907 C150.641619,13.820943 150.397739,13.3577291 150.055451,12.946679 C149.712094,12.5356289 149.29707,12.2143004 148.808241,11.9795636 C148.182496,11.6780573 147.52894,11.5539077 146.845435,11.6050281 C146.162999,11.6571918 145.532975,11.8689765 144.955365,12.2414255 C144.378824,12.6149177 143.93385,13.1115164 143.621513,13.7291348 C143.309175,14.3477965 143.176539,14.9935834 143.225743,15.6685819 C143.273877,16.3414939 143.485667,16.9580691 143.860044,17.5172642 C144.235491,18.075416 144.735017,18.5062883 145.360762,18.8077946 C145.880611,19.0560939 146.430411,19.1833734 147.01123,19.18546 C147.58991,19.1885898 148.146128,19.0706998 148.679883,18.8349198 L148.951574,19.3784657 C148.332247,19.6632797 147.686179,19.8030784 147.01123,19.7999486 C146.336282,19.7957755 145.694492,19.6465873 145.084792,19.3534272" id="Fill-39" fill="#0B0B09" fill-rule="nonzero"></path>
            <polygon id="Fill-41" fill="#0B0B09" fill-rule="nonzero" points="153 23.0637269 157.869072 15.8 162.6 18.9352164 162.254638 19.4498273 158.02847 16.6495834 156.112508 19.5100589 159.405667 21.6931924 159.061368 22.2056899 155.767146 20.0257265 153.858623 22.8745783 158.083728 25.6748222 157.73199 26.2"></polygon>
            <g id="DEGREE" transform="translate(178.000000, 78.000000)" fill="#000000" font-family="Kiona-Regular, Kiona" font-size="38.4" font-weight="normal">
                <text>
                    <tspan x="0" y="38">DEGREE</tspan>
                </text>
            </g>
        </g>
    </g>
</svg>